<?xml version="1.0" encoding="UTF-8" standalone="no"?><!DOCTYPE svg PUBLIC "-//W3C//DTD SVG 1.1//EN" "http://www.w3.org/Graphics/SVG/1.1/DTD/svg11.dtd"><!-- Generated by graphviz version 2.40.1 (20161225.0304)
 --><!-- Title: G Pages: 1 --><svg xmlns="http://www.w3.org/2000/svg" xmlns:xlink="http://www.w3.org/1999/xlink" width="1809pt" height="980pt" viewBox="0.00 0.00 1808.73 980.00">
<g id="graph0" class="graph" transform="scale(1 1) rotate(0) translate(4 976)">
<title>G</title>
<polygon fill="#ffffff" stroke="transparent" points="-4,4 -4,-976 1804.7312,-976 1804.7312,4 -4,4"/>
<!-- broadcaster -->
<g id="node1" class="node">
<title>broadcaster</title>
<ellipse fill="none" stroke="#00ff00" cx="802.358" cy="-954" rx="55.5753" ry="18"/>
<text text-anchor="middle" x="802.358" y="-949.8" font-family="Times,serif" font-size="14.00" fill="#000000">broadcaster</text>
</g>
<!-- zj -->
<g id="node13" class="node">
<title>zj</title>
<ellipse fill="none" stroke="#000000" cx="265.358" cy="-882" rx="27" ry="18"/>
<text text-anchor="middle" x="265.358" y="-877.8" font-family="Times,serif" font-size="14.00" fill="#000000">zj</text>
</g>
<!-- broadcaster&#45;&gt;zj -->
<g id="edge65" class="edge">
<title>broadcaster-&gt;zj</title>
<path fill="none" stroke="#000000" d="M750.8682,-947.0963C643.0611,-932.6418 395.8408,-899.4949 302.2111,-886.9412"/>
<polygon fill="#000000" stroke="#000000" points="302.4634,-883.4438 292.0869,-885.5838 301.5331,-890.3817 302.4634,-883.4438"/>
</g>
<!-- hd -->
<g id="node29" class="node">
<title>hd</title>
<ellipse fill="none" stroke="#000000" cx="1555.358" cy="-882" rx="27" ry="18"/>
<text text-anchor="middle" x="1555.358" y="-877.8" font-family="Times,serif" font-size="14.00" fill="#000000">hd</text>
</g>
<!-- broadcaster&#45;&gt;hd -->
<g id="edge66" class="edge">
<title>broadcaster-&gt;hd</title>
<path fill="none" stroke="#000000" d="M855.9083,-948.8797C1000.3756,-935.066 1395.4762,-897.2875 1518.3724,-885.5365"/>
<polygon fill="#000000" stroke="#000000" points="1518.79,-889.0126 1528.4114,-884.5766 1518.1237,-882.0444 1518.79,-889.0126"/>
</g>
<!-- jz -->
<g id="node39" class="node">
<title>jz</title>
<ellipse fill="none" stroke="#000000" cx="1031.358" cy="-882" rx="27" ry="18"/>
<text text-anchor="middle" x="1031.358" y="-877.8" font-family="Times,serif" font-size="14.00" fill="#000000">jz</text>
</g>
<!-- broadcaster&#45;&gt;jz -->
<g id="edge67" class="edge">
<title>broadcaster-&gt;jz</title>
<path fill="none" stroke="#000000" d="M842.2468,-941.4586C886.0487,-927.6868 955.6529,-905.8025 997.085,-892.7758"/>
<polygon fill="#000000" stroke="#000000" points="998.2389,-896.082 1006.7287,-889.7437 996.1393,-889.4043 998.2389,-896.082"/>
</g>
<!-- sq -->
<g id="node43" class="node">
<title>sq</title>
<ellipse fill="none" stroke="#000000" cx="555.358" cy="-882" rx="27" ry="18"/>
<text text-anchor="middle" x="555.358" y="-877.8" font-family="Times,serif" font-size="14.00" fill="#000000">sq</text>
</g>
<!-- broadcaster&#45;&gt;sq -->
<g id="edge68" class="edge">
<title>broadcaster-&gt;sq</title>
<path fill="none" stroke="#000000" d="M761.0158,-941.9488C713.1099,-927.9844 635.0196,-905.2212 590.1112,-892.1305"/>
<polygon fill="#000000" stroke="#000000" points="590.8307,-888.6946 580.2508,-889.2562 588.8717,-895.4149 590.8307,-888.6946"/>
</g>
<!-- rx -->
<g id="node2" class="node">
<title>rx</title>
<ellipse fill="none" stroke="#ff0000" cx="794.358" cy="-306" rx="27" ry="18"/>
<text text-anchor="middle" x="794.358" y="-301.8" font-family="Times,serif" font-size="14.00" fill="#000000">rx</text>
</g>
<!-- vh -->
<g id="node3" class="node">
<title>vh</title>
<ellipse fill="none" stroke="#000000" cx="587.358" cy="-810" rx="27" ry="18"/>
<text text-anchor="middle" x="587.358" y="-805.8" font-family="Times,serif" font-size="14.00" fill="#000000">vh</text>
</g>
<!-- qc -->
<g id="node4" class="node">
<title>qc</title>
<ellipse fill="none" stroke="#000000" cx="625.358" cy="-738" rx="27" ry="18"/>
<text text-anchor="middle" x="625.358" y="-733.8" font-family="Times,serif" font-size="14.00" fill="#000000">qc</text>
</g>
<!-- vh&#45;&gt;qc -->
<g id="edge1" class="edge">
<title>vh-&gt;qc</title>
<path fill="none" stroke="#000000" d="M596.3635,-792.937C600.8408,-784.4537 606.3532,-774.0092 611.3651,-764.513"/>
<polygon fill="#000000" stroke="#000000" points="614.5809,-765.9182 616.1532,-755.4407 608.3902,-762.6509 614.5809,-765.9182"/>
</g>
<!-- rr -->
<g id="node5" class="node">
<title>rr</title>
<ellipse fill="none" stroke="#000000" cx="566.358" cy="-522" rx="27" ry="18"/>
<text text-anchor="middle" x="566.358" y="-517.8" font-family="Times,serif" font-size="14.00" fill="#000000">rr</text>
</g>
<!-- vh&#45;&gt;rr -->
<g id="edge2" class="edge">
<title>vh-&gt;rr</title>
<path fill="none" stroke="#000000" d="M586.0444,-791.9843C582.494,-743.2939 572.6869,-608.7961 568.4039,-550.0573"/>
<polygon fill="#000000" stroke="#000000" points="571.8892,-549.7278 567.6712,-540.0089 564.9078,-550.237 571.8892,-549.7278"/>
</g>
<!-- gp -->
<g id="node17" class="node">
<title>gp</title>
<ellipse fill="none" stroke="#000000" cx="663.358" cy="-666" rx="27" ry="18"/>
<text text-anchor="middle" x="663.358" y="-661.8" font-family="Times,serif" font-size="14.00" fill="#000000">gp</text>
</g>
<!-- qc&#45;&gt;gp -->
<g id="edge15" class="edge">
<title>qc-&gt;gp</title>
<path fill="none" stroke="#000000" d="M634.3635,-720.937C638.8408,-712.4537 644.3532,-702.0092 649.3651,-692.513"/>
<polygon fill="#000000" stroke="#000000" points="652.5809,-693.9182 654.1532,-683.4407 646.3902,-690.6509 652.5809,-693.9182"/>
</g>
<!-- rr&#45;&gt;qc -->
<g id="edge42" class="edge">
<title>rr-&gt;qc</title>
<path fill="none" stroke="#000000" d="M572.6924,-539.8954C576.3039,-550.3605 580.8039,-563.8605 584.358,-576 597.9804,-622.5282 611.2887,-677.3417 618.8883,-709.7976"/>
<polygon fill="#000000" stroke="#000000" points="615.5643,-710.956 621.2389,-719.903 622.3822,-709.37 615.5643,-710.956"/>
</g>
<!-- rr&#45;&gt;gp -->
<g id="edge43" class="edge">
<title>rr-&gt;gp</title>
<path fill="none" stroke="#000000" d="M583.9652,-535.9231C595.9405,-546.0693 611.5186,-560.6721 622.358,-576 636.1396,-595.4883 647.0437,-620.3505 654.1315,-639.0034"/>
<polygon fill="#000000" stroke="#000000" points="650.846,-640.2103 657.5778,-648.3916 657.4173,-637.798 650.846,-640.2103"/>
</g>
<!-- rv -->
<g id="node41" class="node">
<title>rv</title>
<ellipse fill="none" stroke="#000000" cx="657.358" cy="-450" rx="27" ry="18"/>
<text text-anchor="middle" x="657.358" y="-445.8" font-family="Times,serif" font-size="14.00" fill="#000000">rv</text>
</g>
<!-- rr&#45;&gt;rv -->
<g id="edge44" class="edge">
<title>rr-&gt;rv</title>
<path fill="none" stroke="#000000" d="M583.9037,-508.1177C597.5,-497.3602 616.5333,-482.3009 631.8184,-470.2072"/>
<polygon fill="#000000" stroke="#000000" points="634.1956,-472.7893 639.8662,-463.8397 629.8522,-467.2998 634.1956,-472.7893"/>
</g>
<!-- jt -->
<g id="node42" class="node">
<title>jt</title>
<ellipse fill="none" stroke="#000000" cx="729.358" cy="-450" rx="27" ry="18"/>
<text text-anchor="middle" x="729.358" y="-445.8" font-family="Times,serif" font-size="14.00" fill="#000000">jt</text>
</g>
<!-- rr&#45;&gt;jt -->
<g id="edge45" class="edge">
<title>rr-&gt;jt</title>
<path fill="none" stroke="#000000" d="M589.488,-512.6667C615.0866,-502.2214 657.4715,-484.5819 693.358,-468 695.1183,-467.1866 696.9199,-466.3381 698.7333,-465.4716"/>
<polygon fill="#000000" stroke="#000000" points="700.3071,-468.5982 707.7607,-461.0687 697.2384,-462.3066 700.3071,-468.5982"/>
</g>
<!-- rr&#45;&gt;sq -->
<g id="edge46" class="edge">
<title>rr-&gt;sq</title>
<path fill="none" stroke="#000000" d="M563.1103,-540.1214C553.6166,-566.924 532.358,-619.0365 532.358,-666 532.358,-738 532.358,-738 532.358,-738 532.358,-779.0558 544.9069,-825.1615 552.0778,-853.8924"/>
<polygon fill="#000000" stroke="#000000" points="548.6856,-854.7558 554.4431,-863.6497 555.4886,-853.1066 548.6856,-854.7558"/>
</g>
<!-- pb -->
<g id="node6" class="node">
<title>pb</title>
<ellipse fill="none" stroke="#000000" cx="241.358" cy="-666" rx="27" ry="18"/>
<text text-anchor="middle" x="241.358" y="-661.8" font-family="Times,serif" font-size="14.00" fill="#000000">pb</text>
</g>
<!-- gf -->
<g id="node7" class="node">
<title>gf</title>
<ellipse fill="none" stroke="#000000" cx="57.358" cy="-594" rx="27" ry="18"/>
<text text-anchor="middle" x="57.358" y="-589.8" font-family="Times,serif" font-size="14.00" fill="#000000">gf</text>
</g>
<!-- pb&#45;&gt;gf -->
<g id="edge3" class="edge">
<title>pb-&gt;gf</title>
<path fill="none" stroke="#000000" d="M217.4244,-657.3991C188.9025,-647.0488 139.8833,-628.942 98.358,-612 95.3349,-610.7666 92.2002,-609.4534 89.0719,-608.1198"/>
<polygon fill="#000000" stroke="#000000" points="90.3915,-604.8773 79.824,-604.1172 87.611,-611.3014 90.3915,-604.8773"/>
</g>
<!-- gv -->
<g id="node8" class="node">
<title>gv</title>
<ellipse fill="none" stroke="#000000" cx="205.358" cy="-522" rx="27" ry="18"/>
<text text-anchor="middle" x="205.358" y="-517.8" font-family="Times,serif" font-size="14.00" fill="#000000">gv</text>
</g>
<!-- pb&#45;&gt;gv -->
<g id="edge4" class="edge">
<title>pb-&gt;gv</title>
<path fill="none" stroke="#000000" d="M236.8714,-648.0535C230.7274,-623.4774 219.6332,-579.1008 212.3824,-550.0974"/>
<polygon fill="#000000" stroke="#000000" points="215.7221,-549.0252 209.9012,-540.1727 208.9311,-550.723 215.7221,-549.0252"/>
</g>
<!-- vp -->
<g id="node9" class="node">
<title>vp</title>
<ellipse fill="none" stroke="#000000" cx="766.358" cy="-522" rx="27" ry="18"/>
<text text-anchor="middle" x="766.358" y="-517.8" font-family="Times,serif" font-size="14.00" fill="#000000">vp</text>
</g>
<!-- pb&#45;&gt;vp -->
<g id="edge5" class="edge">
<title>pb-&gt;vp</title>
<path fill="none" stroke="#000000" d="M268.4807,-664.755C366.815,-660.0119 700.7624,-641.8218 737.358,-612 755.6723,-597.0757 762.5601,-570.4886 765.0808,-550.0681"/>
<polygon fill="#000000" stroke="#000000" points="768.5712,-550.3336 766.0382,-540.046 761.603,-549.6678 768.5712,-550.3336"/>
</g>
<!-- qb -->
<g id="node10" class="node">
<title>qb</title>
<ellipse fill="none" stroke="#000000" cx="224.358" cy="-378" rx="27" ry="18"/>
<text text-anchor="middle" x="224.358" y="-373.8" font-family="Times,serif" font-size="14.00" fill="#000000">qb</text>
</g>
<!-- pb&#45;&gt;qb -->
<g id="edge6" class="edge">
<title>pb-&gt;qb</title>
<path fill="none" stroke="#000000" d="M248.8059,-648.359C252.7885,-637.9787 257.2885,-624.4787 259.358,-612 272.4469,-533.0768 283.5411,-508.5685 260.358,-432 257.0919,-421.2127 250.8816,-410.6108 244.5267,-401.6963"/>
<polygon fill="#000000" stroke="#000000" points="247.3093,-399.5732 238.481,-393.7156 241.7296,-403.8001 247.3093,-399.5732"/>
</g>
<!-- vr -->
<g id="node11" class="node">
<title>vr</title>
<ellipse fill="none" stroke="#000000" cx="224.358" cy="-450" rx="27" ry="18"/>
<text text-anchor="middle" x="224.358" y="-445.8" font-family="Times,serif" font-size="14.00" fill="#000000">vr</text>
</g>
<!-- pb&#45;&gt;vr -->
<g id="edge7" class="edge">
<title>pb-&gt;vr</title>
<path fill="none" stroke="#000000" d="M243.1405,-647.8844C245.7038,-617.7951 249.3046,-555.7054 241.358,-504 239.9994,-495.1598 237.4586,-485.7811 234.7477,-477.3637"/>
<polygon fill="#000000" stroke="#000000" points="237.9794,-475.9979 231.4247,-467.674 231.358,-478.2687 237.9794,-475.9979"/>
</g>
<!-- hq -->
<g id="node12" class="node">
<title>hq</title>
<ellipse fill="none" stroke="#000000" cx="201.358" cy="-306" rx="27" ry="18"/>
<text text-anchor="middle" x="201.358" y="-301.8" font-family="Times,serif" font-size="14.00" fill="#000000">hq</text>
</g>
<!-- pb&#45;&gt;hq -->
<g id="edge8" class="edge">
<title>pb-&gt;hq</title>
<path fill="none" stroke="#000000" d="M224.2416,-651.5398C197.8811,-627.549 150.358,-576.7111 150.358,-522 150.358,-522 150.358,-522 150.358,-450 150.358,-406.633 171.165,-359.9168 186.1987,-331.8227"/>
<polygon fill="#000000" stroke="#000000" points="189.2771,-333.4884 191.0374,-323.0408 183.1461,-330.1103 189.2771,-333.4884"/>
</g>
<!-- pb&#45;&gt;zj -->
<g id="edge9" class="edge">
<title>pb-&gt;zj</title>
<path fill="none" stroke="#000000" d="M247.2675,-683.8413C254.9029,-721.3177 264.8577,-808.4835 266.948,-853.6825"/>
<polygon fill="#000000" stroke="#000000" points="263.4595,-854.0808 267.299,-863.9555 270.4554,-853.8418 263.4595,-854.0808"/>
</g>
<!-- gf&#45;&gt;gv -->
<g id="edge60" class="edge">
<title>gf-&gt;gv</title>
<path fill="none" stroke="#000000" d="M79.1959,-583.3762C104.3359,-571.1459 145.8181,-550.9654 174.3089,-537.105"/>
<polygon fill="#000000" stroke="#000000" points="175.9693,-540.1895 183.4305,-532.6674 172.907,-533.8948 175.9693,-540.1895"/>
</g>
<!-- gv&#45;&gt;vr -->
<g id="edge104" class="edge">
<title>gv-&gt;vr</title>
<path fill="none" stroke="#000000" d="M210.0547,-504.2022C212.1556,-496.2406 214.682,-486.6671 217.023,-477.7957"/>
<polygon fill="#000000" stroke="#000000" points="220.4821,-478.4046 219.6496,-467.8425 213.7138,-476.6185 220.4821,-478.4046"/>
</g>
<!-- ns -->
<g id="node20" class="node">
<title>ns</title>
<ellipse fill="none" stroke="#000000" cx="794.358" cy="-378" rx="27" ry="18"/>
<text text-anchor="middle" x="794.358" y="-373.8" font-family="Times,serif" font-size="14.00" fill="#000000">ns</text>
</g>
<!-- vp&#45;&gt;ns -->
<g id="edge76" class="edge">
<title>vp-&gt;ns</title>
<path fill="none" stroke="#000000" d="M769.8476,-504.0535C774.6263,-479.4774 783.2551,-435.1008 788.8946,-406.0974"/>
<polygon fill="#000000" stroke="#000000" points="792.3513,-406.6569 790.8244,-396.1727 785.48,-405.3208 792.3513,-406.6569"/>
</g>
<!-- qb&#45;&gt;hq -->
<g id="edge89" class="edge">
<title>qb-&gt;hq</title>
<path fill="none" stroke="#000000" d="M218.6726,-360.2022C216.1017,-352.1541 213.0046,-342.4588 210.1449,-333.5067"/>
<polygon fill="#000000" stroke="#000000" points="213.4348,-332.3033 207.0577,-323.8425 206.7667,-334.4334 213.4348,-332.3033"/>
</g>
<!-- vr&#45;&gt;qb -->
<g id="edge47" class="edge">
<title>vr-&gt;qb</title>
<path fill="none" stroke="#000000" d="M224.358,-431.8314C224.358,-424.131 224.358,-414.9743 224.358,-406.4166"/>
<polygon fill="#000000" stroke="#000000" points="227.8581,-406.4132 224.358,-396.4133 220.8581,-406.4133 227.8581,-406.4132"/>
</g>
<!-- nx -->
<g id="node44" class="node">
<title>nx</title>
<ellipse fill="none" stroke="#000000" cx="201.358" cy="-234" rx="27" ry="18"/>
<text text-anchor="middle" x="201.358" y="-229.8" font-family="Times,serif" font-size="14.00" fill="#000000">nx</text>
</g>
<!-- hq&#45;&gt;nx -->
<g id="edge50" class="edge">
<title>hq-&gt;nx</title>
<path fill="none" stroke="#000000" d="M201.358,-287.8314C201.358,-280.131 201.358,-270.9743 201.358,-262.4166"/>
<polygon fill="#000000" stroke="#000000" points="204.8581,-262.4132 201.358,-252.4133 197.8581,-262.4133 204.8581,-262.4132"/>
</g>
<!-- zj&#45;&gt;pb -->
<g id="edge10" class="edge">
<title>zj-&gt;pb</title>
<path fill="none" stroke="#000000" d="M259.4822,-864.3238C251.8384,-826.9193 241.8509,-739.4915 239.7647,-694.2464"/>
<polygon fill="#000000" stroke="#000000" points="243.2618,-694.0995 239.4206,-684.2255 236.266,-694.3398 243.2618,-694.0995"/>
</g>
<!-- kn -->
<g id="node14" class="node">
<title>kn</title>
<ellipse fill="none" stroke="#000000" cx="201.358" cy="-810" rx="27" ry="18"/>
<text text-anchor="middle" x="201.358" y="-805.8" font-family="Times,serif" font-size="14.00" fill="#000000">kn</text>
</g>
<!-- zj&#45;&gt;kn -->
<g id="edge11" class="edge">
<title>zj-&gt;kn</title>
<path fill="none" stroke="#000000" d="M251.471,-866.3771C242.8327,-856.659 231.5687,-843.987 221.9083,-833.1191"/>
<polygon fill="#000000" stroke="#000000" points="224.4776,-830.7413 215.218,-825.5924 219.2457,-835.3918 224.4776,-830.7413"/>
</g>
<!-- kn&#45;&gt;pb -->
<g id="edge93" class="edge">
<title>kn-&gt;pb</title>
<path fill="none" stroke="#000000" d="M206.3432,-792.0535C213.2072,-767.3431 225.6316,-722.6152 233.6849,-693.6234"/>
<polygon fill="#000000" stroke="#000000" points="237.1315,-694.2923 236.4357,-683.7204 230.3869,-692.4188 237.1315,-694.2923"/>
</g>
<!-- xn -->
<g id="node58" class="node">
<title>xn</title>
<ellipse fill="none" stroke="#000000" cx="163.358" cy="-738" rx="27" ry="18"/>
<text text-anchor="middle" x="163.358" y="-733.8" font-family="Times,serif" font-size="14.00" fill="#000000">xn</text>
</g>
<!-- kn&#45;&gt;xn -->
<g id="edge94" class="edge">
<title>kn-&gt;xn</title>
<path fill="none" stroke="#000000" d="M192.3526,-792.937C187.8753,-784.4537 182.3629,-774.0092 177.351,-764.513"/>
<polygon fill="#000000" stroke="#000000" points="180.3258,-762.6509 172.5628,-755.4407 174.1351,-765.9182 180.3258,-762.6509"/>
</g>
<!-- mm -->
<g id="node15" class="node">
<title>mm</title>
<ellipse fill="none" stroke="#000000" cx="907.358" cy="-18" rx="27" ry="18"/>
<text text-anchor="middle" x="907.358" y="-13.8" font-family="Times,serif" font-size="14.00" fill="#000000">mm</text>
</g>
<!-- dj -->
<g id="node16" class="node">
<title>dj</title>
<ellipse fill="none" stroke="#000000" cx="1031.358" cy="-810" rx="27" ry="18"/>
<text text-anchor="middle" x="1031.358" y="-805.8" font-family="Times,serif" font-size="14.00" fill="#000000">dj</text>
</g>
<!-- mm&#45;&gt;dj -->
<g id="edge12" class="edge">
<title>mm-&gt;dj</title>
<path fill="none" stroke="#000000" d="M897.8469,-35.1429C884.1133,-61.5474 860.358,-114.1378 860.358,-162 860.358,-666 860.358,-666 860.358,-666 860.358,-712.4205 878.8871,-724.9095 913.358,-756 937.1366,-777.4467 970.8851,-791.7244 996.203,-800.1827"/>
<polygon fill="#000000" stroke="#000000" points="995.2058,-803.5383 1005.7966,-803.2465 997.3354,-796.8701 995.2058,-803.5383"/>
</g>
<!-- dc -->
<g id="node19" class="node">
<title>dc</title>
<ellipse fill="none" stroke="#000000" cx="805.358" cy="-666" rx="27" ry="18"/>
<text text-anchor="middle" x="805.358" y="-661.8" font-family="Times,serif" font-size="14.00" fill="#000000">dc</text>
</g>
<!-- dj&#45;&gt;dc -->
<g id="edge36" class="edge">
<title>dj-&gt;dc</title>
<path fill="none" stroke="#000000" d="M1005.2446,-805.1626C960.179,-796.3706 870.3235,-776.7523 846.358,-756 827.7886,-739.9203 817.1695,-713.7055 811.414,-693.7051"/>
<polygon fill="#000000" stroke="#000000" points="814.763,-692.6779 808.8313,-683.8992 807.9938,-694.4609 814.763,-692.6779"/>
</g>
<!-- fq -->
<g id="node22" class="node">
<title>fq</title>
<ellipse fill="none" stroke="#000000" cx="953.358" cy="-234" rx="27" ry="18"/>
<text text-anchor="middle" x="953.358" y="-229.8" font-family="Times,serif" font-size="14.00" fill="#000000">fq</text>
</g>
<!-- dj&#45;&gt;fq -->
<g id="edge37" class="edge">
<title>dj-&gt;fq</title>
<path fill="none" stroke="#000000" d="M1013.9336,-796.0836C986.5079,-772.4817 936.358,-721.7076 936.358,-666 936.358,-666 936.358,-666 936.358,-378 936.358,-337.5973 943.0399,-291.2552 948.0254,-262.3013"/>
<polygon fill="#000000" stroke="#000000" points="951.5337,-262.5623 949.8356,-252.1045 944.6415,-261.3387 951.5337,-262.5623"/>
</g>
<!-- jc -->
<g id="node32" class="node">
<title>jc</title>
<ellipse fill="none" stroke="#000000" cx="1086.358" cy="-450" rx="27" ry="18"/>
<text text-anchor="middle" x="1086.358" y="-445.8" font-family="Times,serif" font-size="14.00" fill="#000000">jc</text>
</g>
<!-- dj&#45;&gt;jc -->
<g id="edge38" class="edge">
<title>dj-&gt;jc</title>
<path fill="none" stroke="#000000" d="M1055.6413,-801.9531C1101.9583,-784.8991 1198.358,-740.4607 1198.358,-666 1198.358,-666 1198.358,-666 1198.358,-594 1198.358,-539.3419 1147.459,-492.9358 1114.2864,-468.4956"/>
<polygon fill="#000000" stroke="#000000" points="1116.0381,-465.4456 1105.8669,-462.4795 1111.9685,-471.1411 1116.0381,-465.4456"/>
</g>
<!-- ht -->
<g id="node33" class="node">
<title>ht</title>
<ellipse fill="none" stroke="#000000" cx="1291.358" cy="-738" rx="27" ry="18"/>
<text text-anchor="middle" x="1291.358" y="-733.8" font-family="Times,serif" font-size="14.00" fill="#000000">ht</text>
</g>
<!-- dj&#45;&gt;ht -->
<g id="edge39" class="edge">
<title>dj-&gt;ht</title>
<path fill="none" stroke="#000000" d="M1057.3948,-805.0921C1098.8492,-796.9426 1182.1392,-779.1931 1250.358,-756 1253.4493,-754.949 1256.6298,-753.7584 1259.787,-752.5023"/>
<polygon fill="#000000" stroke="#000000" points="1261.2052,-755.7029 1269.0767,-748.6113 1258.5009,-749.2464 1261.2052,-755.7029"/>
</g>
<!-- dj&#45;&gt;jz -->
<g id="edge40" class="edge">
<title>dj-&gt;jz</title>
<path fill="none" stroke="#000000" d="M1037.2531,-827.593C1038.0674,-835.5865 1038.3,-845.2363 1037.9509,-854.1759"/>
<polygon fill="#000000" stroke="#000000" points="1034.4556,-853.9891 1037.2737,-864.2022 1041.4397,-854.4608 1034.4556,-853.9891"/>
</g>
<!-- zs -->
<g id="node40" class="node">
<title>zs</title>
<ellipse fill="none" stroke="#000000" cx="1105.358" cy="-594" rx="27" ry="18"/>
<text text-anchor="middle" x="1105.358" y="-589.8" font-family="Times,serif" font-size="14.00" fill="#000000">zs</text>
</g>
<!-- dj&#45;&gt;zs -->
<g id="edge41" class="edge">
<title>dj-&gt;zs</title>
<path fill="none" stroke="#000000" d="M1043.1265,-793.6744C1050.1363,-783.3072 1058.7342,-769.368 1064.358,-756 1083.2589,-711.0718 1095.0101,-655.3406 1100.8553,-622.3367"/>
<polygon fill="#000000" stroke="#000000" points="1104.3763,-622.5108 1102.613,-612.0638 1097.4766,-621.3302 1104.3763,-622.5108"/>
</g>
<!-- cp -->
<g id="node18" class="node">
<title>cp</title>
<ellipse fill="none" stroke="#000000" cx="701.358" cy="-594" rx="27" ry="18"/>
<text text-anchor="middle" x="701.358" y="-589.8" font-family="Times,serif" font-size="14.00" fill="#000000">cp</text>
</g>
<!-- gp&#45;&gt;cp -->
<g id="edge13" class="edge">
<title>gp-&gt;cp</title>
<path fill="none" stroke="#000000" d="M672.3635,-648.937C676.8408,-640.4537 682.3532,-630.0092 687.3651,-620.513"/>
<polygon fill="#000000" stroke="#000000" points="690.5809,-621.9182 692.1532,-611.4407 684.3902,-618.6509 690.5809,-621.9182"/>
</g>
<!-- cp&#45;&gt;rr -->
<g id="edge106" class="edge">
<title>cp-&gt;rr</title>
<path fill="none" stroke="#000000" d="M680.2643,-582.75C657.8084,-570.7735 622.0714,-551.7138 596.6179,-538.1386"/>
<polygon fill="#000000" stroke="#000000" points="598.2198,-535.0263 587.7492,-533.4086 594.9256,-541.2028 598.2198,-535.0263"/>
</g>
<!-- cp&#45;&gt;jt -->
<g id="edge107" class="edge">
<title>cp-&gt;jt</title>
<path fill="none" stroke="#000000" d="M704.8476,-576.0535C709.6263,-551.4774 718.2551,-507.1008 723.8946,-478.0974"/>
<polygon fill="#000000" stroke="#000000" points="727.3513,-478.6569 725.8244,-468.1727 720.48,-477.3208 727.3513,-478.6569"/>
</g>
<!-- dc&#45;&gt;ns -->
<g id="edge14" class="edge">
<title>dc-&gt;ns</title>
<path fill="none" stroke="#000000" d="M805.2855,-647.5277C805.1068,-617.4434 804.4891,-555.9965 802.358,-504 800.9836,-470.4646 798.3912,-431.9674 796.5295,-406.4422"/>
<polygon fill="#000000" stroke="#000000" points="800.0112,-406.0636 795.7821,-396.3494 793.0303,-406.5806 800.0112,-406.0636"/>
</g>
<!-- ns&#45;&gt;rx -->
<g id="edge82" class="edge">
<title>ns-&gt;rx</title>
<path fill="none" stroke="#000000" d="M794.358,-359.8314C794.358,-352.131 794.358,-342.9743 794.358,-334.4166"/>
<polygon fill="#000000" stroke="#000000" points="797.8581,-334.4132 794.358,-324.4133 790.8581,-334.4133 797.8581,-334.4132"/>
</g>
<!-- dx -->
<g id="node21" class="node">
<title>dx</title>
<ellipse fill="none" stroke="#000000" cx="991.358" cy="-306" rx="27" ry="18"/>
<text text-anchor="middle" x="991.358" y="-301.8" font-family="Times,serif" font-size="14.00" fill="#000000">dx</text>
</g>
<!-- dx&#45;&gt;dj -->
<g id="edge16" class="edge">
<title>dx-&gt;dj</title>
<path fill="none" stroke="#000000" d="M987.8356,-324.1045C982.8562,-351.3176 974.358,-404.4358 974.358,-450 974.358,-666 974.358,-666 974.358,-666 974.358,-710.2065 997.8691,-757.0269 1014.6917,-784.8695"/>
<polygon fill="#000000" stroke="#000000" points="1011.8408,-786.9129 1020.0967,-793.5531 1017.7837,-783.2138 1011.8408,-786.9129"/>
</g>
<!-- dx&#45;&gt;fq -->
<g id="edge17" class="edge">
<title>dx-&gt;fq</title>
<path fill="none" stroke="#000000" d="M982.3526,-288.937C977.8753,-280.4537 972.3629,-270.0092 967.351,-260.513"/>
<polygon fill="#000000" stroke="#000000" points="970.3258,-258.6509 962.5628,-251.4407 964.1351,-261.9182 970.3258,-258.6509"/>
</g>
<!-- xz -->
<g id="node56" class="node">
<title>xz</title>
<ellipse fill="none" stroke="#000000" cx="934.358" cy="-162" rx="27" ry="18"/>
<text text-anchor="middle" x="934.358" y="-157.8" font-family="Times,serif" font-size="14.00" fill="#000000">xz</text>
</g>
<!-- fq&#45;&gt;xz -->
<g id="edge92" class="edge">
<title>fq-&gt;xz</title>
<path fill="none" stroke="#000000" d="M948.6614,-216.2022C946.5604,-208.2406 944.0341,-198.6671 941.693,-189.7957"/>
<polygon fill="#000000" stroke="#000000" points="945.0022,-188.6185 939.0665,-179.8425 938.2339,-190.4046 945.0022,-188.6185"/>
</g>
<!-- tg -->
<g id="node23" class="node">
<title>tg</title>
<ellipse fill="none" stroke="#000000" cx="1553.358" cy="-450" rx="27" ry="18"/>
<text text-anchor="middle" x="1553.358" y="-445.8" font-family="Times,serif" font-size="14.00" fill="#000000">tg</text>
</g>
<!-- nl -->
<g id="node24" class="node">
<title>nl</title>
<ellipse fill="none" stroke="#000000" cx="1555.358" cy="-810" rx="27" ry="18"/>
<text text-anchor="middle" x="1555.358" y="-805.8" font-family="Times,serif" font-size="14.00" fill="#000000">nl</text>
</g>
<!-- tg&#45;&gt;nl -->
<g id="edge18" class="edge">
<title>tg-&gt;nl</title>
<path fill="none" stroke="#000000" d="M1549.8356,-468.1045C1544.8562,-495.3176 1536.358,-548.4358 1536.358,-594 1536.358,-666 1536.358,-666 1536.358,-666 1536.358,-706.4718 1543.826,-752.7963 1549.398,-781.7275"/>
<polygon fill="#000000" stroke="#000000" points="1546.0404,-782.7889 1551.4212,-791.9156 1552.9063,-781.4254 1546.0404,-782.7889"/>
</g>
<!-- ks -->
<g id="node25" class="node">
<title>ks</title>
<ellipse fill="none" stroke="#000000" cx="1515.358" cy="-378" rx="27" ry="18"/>
<text text-anchor="middle" x="1515.358" y="-373.8" font-family="Times,serif" font-size="14.00" fill="#000000">ks</text>
</g>
<!-- tg&#45;&gt;ks -->
<g id="edge19" class="edge">
<title>tg-&gt;ks</title>
<path fill="none" stroke="#000000" d="M1544.3526,-432.937C1539.8753,-424.4537 1534.3629,-414.0092 1529.351,-404.513"/>
<polygon fill="#000000" stroke="#000000" points="1532.3258,-402.6509 1524.5628,-395.4407 1526.1351,-405.9182 1532.3258,-402.6509"/>
</g>
<!-- nl&#45;&gt;ks -->
<g id="edge29" class="edge">
<title>nl-&gt;ks</title>
<path fill="none" stroke="#000000" d="M1544.0967,-793.5531C1527.4851,-767.6458 1498.358,-715.2038 1498.358,-666 1498.358,-666 1498.358,-666 1498.358,-522 1498.358,-481.5973 1505.0399,-435.2552 1510.0254,-406.3013"/>
<polygon fill="#000000" stroke="#000000" points="1513.5337,-406.5623 1511.8356,-396.1045 1506.6415,-405.3387 1513.5337,-406.5623"/>
</g>
<!-- gx -->
<g id="node27" class="node">
<title>gx</title>
<ellipse fill="none" stroke="#000000" cx="1629.358" cy="-594" rx="27" ry="18"/>
<text text-anchor="middle" x="1629.358" y="-589.8" font-family="Times,serif" font-size="14.00" fill="#000000">gx</text>
</g>
<!-- nl&#45;&gt;gx -->
<g id="edge30" class="edge">
<title>nl-&gt;gx</title>
<path fill="none" stroke="#000000" d="M1567.1265,-793.6744C1574.1363,-783.3072 1582.7342,-769.368 1588.358,-756 1607.2589,-711.0718 1619.0101,-655.3406 1624.8553,-622.3367"/>
<polygon fill="#000000" stroke="#000000" points="1628.3763,-622.5108 1626.613,-612.0638 1621.4766,-621.3302 1628.3763,-622.5108"/>
</g>
<!-- xf -->
<g id="node28" class="node">
<title>xf</title>
<ellipse fill="none" stroke="#000000" cx="1591.358" cy="-522" rx="27" ry="18"/>
<text text-anchor="middle" x="1591.358" y="-517.8" font-family="Times,serif" font-size="14.00" fill="#000000">xf</text>
</g>
<!-- nl&#45;&gt;xf -->
<g id="edge31" class="edge">
<title>nl-&gt;xf</title>
<path fill="none" stroke="#000000" d="M1557.61,-791.9843C1563.6963,-743.2939 1580.5085,-608.7961 1587.8509,-550.0573"/>
<polygon fill="#000000" stroke="#000000" points="1591.3395,-550.3658 1589.1069,-540.0089 1584.3935,-549.4975 1591.3395,-550.3658"/>
</g>
<!-- nl&#45;&gt;hd -->
<g id="edge32" class="edge">
<title>nl-&gt;hd</title>
<path fill="none" stroke="#000000" d="M1561.2531,-827.593C1562.0674,-835.5865 1562.3,-845.2363 1561.9509,-854.1759"/>
<polygon fill="#000000" stroke="#000000" points="1558.4556,-853.9891 1561.2737,-864.2022 1565.4397,-854.4608 1558.4556,-853.9891"/>
</g>
<!-- lt -->
<g id="node30" class="node">
<title>lt</title>
<ellipse fill="none" stroke="#000000" cx="1743.358" cy="-738" rx="27" ry="18"/>
<text text-anchor="middle" x="1743.358" y="-733.8" font-family="Times,serif" font-size="14.00" fill="#000000">lt</text>
</g>
<!-- nl&#45;&gt;lt -->
<g id="edge33" class="edge">
<title>nl-&gt;lt</title>
<path fill="none" stroke="#000000" d="M1579.4652,-801.6581C1608.7284,-791.4141 1659.4844,-773.267 1702.358,-756 1705.3866,-754.7803 1708.5251,-753.4762 1711.6557,-752.1484"/>
<polygon fill="#000000" stroke="#000000" points="1713.1136,-755.3314 1720.907,-748.1542 1710.3388,-748.9048 1713.1136,-755.3314"/>
</g>
<!-- cq -->
<g id="node37" class="node">
<title>cq</title>
<ellipse fill="none" stroke="#000000" cx="1310.358" cy="-594" rx="27" ry="18"/>
<text text-anchor="middle" x="1310.358" y="-589.8" font-family="Times,serif" font-size="14.00" fill="#000000">cq</text>
</g>
<!-- nl&#45;&gt;cq -->
<g id="edge34" class="edge">
<title>nl-&gt;cq</title>
<path fill="none" stroke="#000000" d="M1529.0886,-805.3363C1483.7786,-796.8163 1393.5529,-777.6102 1370.358,-756 1332.2751,-720.5188 1318.252,-658.6936 1313.1694,-622.5486"/>
<polygon fill="#000000" stroke="#000000" points="1316.5895,-621.6951 1311.8624,-612.2133 1309.6448,-622.5734 1316.5895,-621.6951"/>
</g>
<!-- tc -->
<g id="node38" class="node">
<title>tc</title>
<ellipse fill="none" stroke="#000000" cx="1496.358" cy="-306" rx="27" ry="18"/>
<text text-anchor="middle" x="1496.358" y="-301.8" font-family="Times,serif" font-size="14.00" fill="#000000">tc</text>
</g>
<!-- nl&#45;&gt;tc -->
<g id="edge35" class="edge">
<title>nl-&gt;tc</title>
<path fill="none" stroke="#000000" d="M1537.9336,-796.0836C1510.5079,-772.4817 1460.358,-721.7076 1460.358,-666 1460.358,-666 1460.358,-666 1460.358,-450 1460.358,-408.2294 1474.791,-361.6235 1485.3796,-333.052"/>
<polygon fill="#000000" stroke="#000000" points="1488.7738,-333.9746 1489.0729,-323.384 1482.2347,-331.4765 1488.7738,-333.9746"/>
</g>
<!-- ks&#45;&gt;tc -->
<g id="edge98" class="edge">
<title>ks-&gt;tc</title>
<path fill="none" stroke="#000000" d="M1510.6614,-360.2022C1508.5604,-352.2406 1506.0341,-342.6671 1503.693,-333.7957"/>
<polygon fill="#000000" stroke="#000000" points="1507.0022,-332.6185 1501.0665,-323.8425 1500.2339,-334.4046 1507.0022,-332.6185"/>
</g>
<!-- pr -->
<g id="node26" class="node">
<title>pr</title>
<ellipse fill="none" stroke="#000000" cx="1449.358" cy="-18" rx="27" ry="18"/>
<text text-anchor="middle" x="1449.358" y="-13.8" font-family="Times,serif" font-size="14.00" fill="#000000">pr</text>
</g>
<!-- pr&#45;&gt;nl -->
<g id="edge20" class="edge">
<title>pr-&gt;nl</title>
<path fill="none" stroke="#000000" d="M1436.5161,-34.2051C1417.5731,-59.789 1384.358,-111.8051 1384.358,-162 1384.358,-666 1384.358,-666 1384.358,-666 1384.358,-712.4205 1402.8871,-724.9095 1437.358,-756 1461.1366,-777.4467 1494.8851,-791.7244 1520.203,-800.1827"/>
<polygon fill="#000000" stroke="#000000" points="1519.2058,-803.5383 1529.7966,-803.2465 1521.3354,-796.8701 1519.2058,-803.5383"/>
</g>
<!-- gx&#45;&gt;xf -->
<g id="edge21" class="edge">
<title>gx-&gt;xf</title>
<path fill="none" stroke="#000000" d="M1620.3526,-576.937C1615.8753,-568.4537 1610.3629,-558.0092 1605.351,-548.513"/>
<polygon fill="#000000" stroke="#000000" points="1608.3258,-546.6509 1600.5628,-539.4407 1602.1351,-549.9182 1608.3258,-546.6509"/>
</g>
<!-- xf&#45;&gt;tg -->
<g id="edge95" class="edge">
<title>xf-&gt;tg</title>
<path fill="none" stroke="#000000" d="M1582.3526,-504.937C1577.8753,-496.4537 1572.3629,-486.0092 1567.351,-476.513"/>
<polygon fill="#000000" stroke="#000000" points="1570.3258,-474.6509 1562.5628,-467.4407 1564.1351,-477.9182 1570.3258,-474.6509"/>
</g>
<!-- hd&#45;&gt;nl -->
<g id="edge22" class="edge">
<title>hd-&gt;nl</title>
<path fill="none" stroke="#000000" d="M1549.4423,-864.2022C1548.6379,-856.1807 1548.4152,-846.5231 1548.7742,-837.5957"/>
<polygon fill="#000000" stroke="#000000" points="1552.2677,-837.8099 1549.463,-827.593 1545.2842,-837.3289 1552.2677,-837.8099"/>
</g>
<!-- hd&#45;&gt;lt -->
<g id="edge23" class="edge">
<title>hd-&gt;lt</title>
<path fill="none" stroke="#000000" d="M1573.3843,-868.1927C1606.7921,-842.6037 1678.4404,-787.7241 1717.1898,-758.0437"/>
<polygon fill="#000000" stroke="#000000" points="1719.5758,-760.6249 1725.3864,-751.7655 1715.3193,-755.0677 1719.5758,-760.6249"/>
</g>
<!-- rh -->
<g id="node51" class="node">
<title>rh</title>
<ellipse fill="none" stroke="#000000" cx="1667.358" cy="-666" rx="27" ry="18"/>
<text text-anchor="middle" x="1667.358" y="-661.8" font-family="Times,serif" font-size="14.00" fill="#000000">rh</text>
</g>
<!-- lt&#45;&gt;rh -->
<g id="edge83" class="edge">
<title>lt-&gt;rh</title>
<path fill="none" stroke="#000000" d="M1727.6108,-723.0816C1716.911,-712.945 1702.577,-699.3654 1690.5743,-687.9944"/>
<polygon fill="#000000" stroke="#000000" points="1692.7518,-685.236 1683.0851,-680.8993 1687.9375,-690.3177 1692.7518,-685.236"/>
</g>
<!-- dq -->
<g id="node31" class="node">
<title>dq</title>
<ellipse fill="none" stroke="#000000" cx="1086.358" cy="-522" rx="27" ry="18"/>
<text text-anchor="middle" x="1086.358" y="-517.8" font-family="Times,serif" font-size="14.00" fill="#000000">dq</text>
</g>
<!-- dq&#45;&gt;dj -->
<g id="edge24" class="edge">
<title>dq-&gt;dj</title>
<path fill="none" stroke="#000000" d="M1080.0366,-539.8195C1076.5127,-550.2593 1072.2627,-563.7593 1069.358,-576 1051.932,-649.4347 1039.9727,-737.7341 1034.5899,-781.921"/>
<polygon fill="#000000" stroke="#000000" points="1031.1067,-781.5731 1033.3932,-791.9182 1038.057,-782.4052 1031.1067,-781.5731"/>
</g>
<!-- dq&#45;&gt;jc -->
<g id="edge25" class="edge">
<title>dq-&gt;jc</title>
<path fill="none" stroke="#000000" d="M1086.358,-503.8314C1086.358,-496.131 1086.358,-486.9743 1086.358,-478.4166"/>
<polygon fill="#000000" stroke="#000000" points="1089.8581,-478.4132 1086.358,-468.4133 1082.8581,-478.4133 1089.8581,-478.4132"/>
</g>
<!-- xv -->
<g id="node50" class="node">
<title>xv</title>
<ellipse fill="none" stroke="#000000" cx="1029.358" cy="-378" rx="27" ry="18"/>
<text text-anchor="middle" x="1029.358" y="-373.8" font-family="Times,serif" font-size="14.00" fill="#000000">xv</text>
</g>
<!-- jc&#45;&gt;xv -->
<g id="edge100" class="edge">
<title>jc-&gt;xv</title>
<path fill="none" stroke="#000000" d="M1073.7079,-434.0209C1066.2545,-424.6061 1056.6805,-412.5126 1048.3366,-401.973"/>
<polygon fill="#000000" stroke="#000000" points="1050.924,-399.6025 1041.9728,-393.9345 1045.4357,-403.9474 1050.924,-399.6025"/>
</g>
<!-- jv -->
<g id="node34" class="node">
<title>jv</title>
<ellipse fill="none" stroke="#000000" cx="1143.358" cy="-666" rx="27" ry="18"/>
<text text-anchor="middle" x="1143.358" y="-661.8" font-family="Times,serif" font-size="14.00" fill="#000000">jv</text>
</g>
<!-- ht&#45;&gt;jv -->
<g id="edge26" class="edge">
<title>ht-&gt;jv</title>
<path fill="none" stroke="#000000" d="M1269.5201,-727.3762C1244.3802,-715.1459 1202.8979,-694.9654 1174.4072,-681.105"/>
<polygon fill="#000000" stroke="#000000" points="1175.809,-677.8948 1165.2855,-676.6674 1172.7467,-684.1895 1175.809,-677.8948"/>
</g>
<!-- jv&#45;&gt;dj -->
<g id="edge69" class="edge">
<title>jv-&gt;dj</title>
<path fill="none" stroke="#000000" d="M1138.0878,-683.9919C1131.8162,-703.2507 1119.9327,-733.999 1102.358,-756 1090.7518,-770.5293 1074.4126,-783.3092 1060.334,-792.7842"/>
<polygon fill="#000000" stroke="#000000" points="1058.4058,-789.863 1051.9227,-798.2428 1062.2165,-795.735 1058.4058,-789.863"/>
</g>
<!-- jv&#45;&gt;zs -->
<g id="edge70" class="edge">
<title>jv-&gt;zs</title>
<path fill="none" stroke="#000000" d="M1134.3526,-648.937C1129.8753,-640.4537 1124.3629,-630.0092 1119.351,-620.513"/>
<polygon fill="#000000" stroke="#000000" points="1122.3258,-618.6509 1114.5628,-611.4407 1116.1351,-621.9182 1122.3258,-618.6509"/>
</g>
<!-- bs -->
<g id="node35" class="node">
<title>bs</title>
<ellipse fill="none" stroke="#000000" cx="136.358" cy="-162" rx="27" ry="18"/>
<text text-anchor="middle" x="136.358" y="-157.8" font-family="Times,serif" font-size="14.00" fill="#000000">bs</text>
</g>
<!-- bs&#45;&gt;pb -->
<g id="edge27" class="edge">
<title>bs-&gt;pb</title>
<path fill="none" stroke="#000000" d="M131.3852,-180.0247C124.3555,-207.136 112.358,-260.1258 112.358,-306 112.358,-522 112.358,-522 112.358,-522 112.358,-581.0394 173.2603,-626.9304 211.3726,-649.8685"/>
<polygon fill="#000000" stroke="#000000" points="209.6556,-652.9189 220.0563,-654.9377 213.1846,-646.8735 209.6556,-652.9189"/>
</g>
<!-- rd -->
<g id="node36" class="node">
<title>rd</title>
<ellipse fill="none" stroke="#000000" cx="136.358" cy="-90" rx="27" ry="18"/>
<text text-anchor="middle" x="136.358" y="-85.8" font-family="Times,serif" font-size="14.00" fill="#000000">rd</text>
</g>
<!-- bs&#45;&gt;rd -->
<g id="edge28" class="edge">
<title>bs-&gt;rd</title>
<path fill="none" stroke="#000000" d="M136.358,-143.8314C136.358,-136.131 136.358,-126.9743 136.358,-118.4166"/>
<polygon fill="#000000" stroke="#000000" points="139.8581,-118.4132 136.358,-108.4133 132.8581,-118.4133 139.8581,-118.4132"/>
</g>
<!-- rd&#45;&gt;pb -->
<g id="edge71" class="edge">
<title>rd-&gt;pb</title>
<path fill="none" stroke="#000000" d="M114.5304,-100.6802C76.5599,-120.9706 2.358,-168.9446 2.358,-234 2.358,-522 2.358,-522 2.358,-522 2.358,-562.8816 -7.0741,-582.6244 21.358,-612 46.4113,-637.8846 148.2664,-654.3757 204.1754,-661.6621"/>
<polygon fill="#000000" stroke="#000000" points="204.0189,-665.1702 214.3798,-662.9563 204.8997,-658.2259 204.0189,-665.1702"/>
</g>
<!-- vs -->
<g id="node52" class="node">
<title>vs</title>
<ellipse fill="none" stroke="#000000" cx="276.358" cy="-18" rx="27" ry="18"/>
<text text-anchor="middle" x="276.358" y="-13.8" font-family="Times,serif" font-size="14.00" fill="#000000">vs</text>
</g>
<!-- rd&#45;&gt;vs -->
<g id="edge72" class="edge">
<title>rd-&gt;vs</title>
<path fill="none" stroke="#000000" d="M157.9262,-78.9078C181.289,-66.8927 218.7694,-47.617 245.3015,-33.9719"/>
<polygon fill="#000000" stroke="#000000" points="247.2425,-36.9095 254.5347,-29.2234 244.041,-30.6845 247.2425,-36.9095"/>
</g>
<!-- cq&#45;&gt;ns -->
<g id="edge105" class="edge">
<title>cq-&gt;ns</title>
<path fill="none" stroke="#000000" d="M1297.5707,-577.9106C1269.78,-544.2412 1200.0915,-466.6163 1122.358,-432 1070.7276,-409.0079 906.0956,-389.5877 831.6022,-381.7329"/>
<polygon fill="#000000" stroke="#000000" points="831.5984,-378.2136 821.2896,-380.6588 830.8732,-385.176 831.5984,-378.2136"/>
</g>
<!-- qz -->
<g id="node55" class="node">
<title>qz</title>
<ellipse fill="none" stroke="#000000" cx="1496.358" cy="-234" rx="27" ry="18"/>
<text text-anchor="middle" x="1496.358" y="-229.8" font-family="Times,serif" font-size="14.00" fill="#000000">qz</text>
</g>
<!-- tc&#45;&gt;qz -->
<g id="edge86" class="edge">
<title>tc-&gt;qz</title>
<path fill="none" stroke="#000000" d="M1496.358,-287.8314C1496.358,-280.131 1496.358,-270.9743 1496.358,-262.4166"/>
<polygon fill="#000000" stroke="#000000" points="1499.8581,-262.4132 1496.358,-252.4133 1492.8581,-262.4133 1499.8581,-262.4132"/>
</g>
<!-- jz&#45;&gt;dj -->
<g id="edge48" class="edge">
<title>jz-&gt;dj</title>
<path fill="none" stroke="#000000" d="M1025.4423,-864.2022C1024.6379,-856.1807 1024.4152,-846.5231 1024.7742,-837.5957"/>
<polygon fill="#000000" stroke="#000000" points="1028.2677,-837.8099 1025.463,-827.593 1021.2842,-837.3289 1028.2677,-837.8099"/>
</g>
<!-- jz&#45;&gt;ht -->
<g id="edge49" class="edge">
<title>jz-&gt;ht</title>
<path fill="none" stroke="#000000" d="M1052.1954,-870.4593C1098.1208,-845.0237 1208.1919,-784.0612 1261.4659,-754.5556"/>
<polygon fill="#000000" stroke="#000000" points="1263.3692,-757.5025 1270.4214,-749.5957 1259.9777,-751.3789 1263.3692,-757.5025"/>
</g>
<!-- zs&#45;&gt;dq -->
<g id="edge103" class="edge">
<title>zs-&gt;dq</title>
<path fill="none" stroke="#000000" d="M1100.6614,-576.2022C1098.5604,-568.2406 1096.0341,-558.6671 1093.693,-549.7957"/>
<polygon fill="#000000" stroke="#000000" points="1097.0022,-548.6185 1091.0665,-539.8425 1090.2339,-550.4046 1097.0022,-548.6185"/>
</g>
<!-- rv&#45;&gt;ns -->
<g id="edge75" class="edge">
<title>rv-&gt;ns</title>
<path fill="none" stroke="#000000" d="M678.7643,-438.75C701.6869,-426.7031 738.2464,-407.4893 764.1046,-393.8996"/>
<polygon fill="#000000" stroke="#000000" points="765.8784,-396.9214 773.1021,-389.171 762.6218,-390.725 765.8784,-396.9214"/>
</g>
<!-- kb -->
<g id="node59" class="node">
<title>kb</title>
<ellipse fill="none" stroke="#000000" cx="619.358" cy="-378" rx="27" ry="18"/>
<text text-anchor="middle" x="619.358" y="-373.8" font-family="Times,serif" font-size="14.00" fill="#000000">kb</text>
</g>
<!-- jt&#45;&gt;kb -->
<g id="edge99" class="edge">
<title>jt-&gt;kb</title>
<path fill="none" stroke="#000000" d="M709.9454,-437.2936C692.616,-425.9507 667.0263,-409.201 647.4608,-396.3946"/>
<polygon fill="#000000" stroke="#000000" points="649.2304,-393.3698 638.9465,-390.8216 645.3968,-399.2267 649.2304,-393.3698"/>
</g>
<!-- sq&#45;&gt;vh -->
<g id="edge56" class="edge">
<title>sq-&gt;vh</title>
<path fill="none" stroke="#000000" d="M563.1043,-864.5708C566.8384,-856.1691 571.3984,-845.9091 575.5526,-836.5623"/>
<polygon fill="#000000" stroke="#000000" points="578.82,-837.8283 579.683,-827.2687 572.4233,-834.9853 578.82,-837.8283"/>
</g>
<!-- sq&#45;&gt;rr -->
<g id="edge57" class="edge">
<title>sq-&gt;rr</title>
<path fill="none" stroke="#000000" d="M543.5299,-865.4177C530.8893,-838.8968 514.358,-785.1221 514.358,-738 514.358,-738 514.358,-738 514.358,-666 514.358,-622.6342 532.4843,-574.8781 547.6626,-546.713"/>
<polygon fill="#000000" stroke="#000000" points="550.7486,-548.3668 552.6666,-537.947 544.6694,-544.8965 550.7486,-548.3668"/>
</g>
<!-- nx&#45;&gt;pb -->
<g id="edge78" class="edge">
<title>nx-&gt;pb</title>
<path fill="none" stroke="#000000" d="M223.3486,-244.6359C261.6024,-264.8551 336.358,-312.7189 336.358,-378 336.358,-522 336.358,-522 336.358,-522 336.358,-572.9202 294.4573,-619.7184 266.3104,-645.4108"/>
<polygon fill="#000000" stroke="#000000" points="263.9442,-642.8312 258.7825,-652.0836 268.5875,-648.0695 263.9442,-642.8312"/>
</g>
<!-- nx&#45;&gt;bs -->
<g id="edge79" class="edge">
<title>nx-&gt;bs</title>
<path fill="none" stroke="#000000" d="M187.254,-218.3771C178.4807,-208.659 167.0408,-195.987 157.2294,-185.1191"/>
<polygon fill="#000000" stroke="#000000" points="159.7335,-182.6698 150.4345,-177.5924 154.5376,-187.3605 159.7335,-182.6698"/>
</g>
<!-- cf -->
<g id="node45" class="node">
<title>cf</title>
<ellipse fill="none" stroke="#000000" cx="543.358" cy="-234" rx="27" ry="18"/>
<text text-anchor="middle" x="543.358" y="-229.8" font-family="Times,serif" font-size="14.00" fill="#000000">cf</text>
</g>
<!-- cf&#45;&gt;rr -->
<g id="edge51" class="edge">
<title>cf-&gt;rr</title>
<path fill="none" stroke="#000000" d="M543.3179,-252.2907C543.3832,-270.4888 543.7702,-299.2009 545.358,-324 549.2381,-384.5978 557.6808,-455.2594 562.5978,-493.6423"/>
<polygon fill="#000000" stroke="#000000" points="559.1871,-494.5573 563.9431,-504.0247 566.129,-493.6578 559.1871,-494.5573"/>
</g>
<!-- jg -->
<g id="node46" class="node">
<title>jg</title>
<ellipse fill="none" stroke="#000000" cx="505.358" cy="-162" rx="27" ry="18"/>
<text text-anchor="middle" x="505.358" y="-157.8" font-family="Times,serif" font-size="14.00" fill="#000000">jg</text>
</g>
<!-- cf&#45;&gt;jg -->
<g id="edge52" class="edge">
<title>cf-&gt;jg</title>
<path fill="none" stroke="#000000" d="M534.3526,-216.937C529.8753,-208.4537 524.3629,-198.0092 519.351,-188.513"/>
<polygon fill="#000000" stroke="#000000" points="522.3258,-186.6509 514.5628,-179.4407 516.1351,-189.9182 522.3258,-186.6509"/>
</g>
<!-- jg&#45;&gt;rr -->
<g id="edge58" class="edge">
<title>jg-&gt;rr</title>
<path fill="none" stroke="#000000" d="M501.8356,-180.1045C496.8562,-207.3176 488.358,-260.4358 488.358,-306 488.358,-378 488.358,-378 488.358,-378 488.358,-425.4103 521.4518,-472.1538 544.527,-498.9839"/>
<polygon fill="#000000" stroke="#000000" points="542.0676,-501.486 551.3188,-506.6499 547.3071,-496.844 542.0676,-501.486"/>
</g>
<!-- pd -->
<g id="node49" class="node">
<title>pd</title>
<ellipse fill="none" stroke="#000000" cx="467.358" cy="-90" rx="27" ry="18"/>
<text text-anchor="middle" x="467.358" y="-85.8" font-family="Times,serif" font-size="14.00" fill="#000000">pd</text>
</g>
<!-- jg&#45;&gt;pd -->
<g id="edge59" class="edge">
<title>jg-&gt;pd</title>
<path fill="none" stroke="#000000" d="M496.3526,-144.937C491.8753,-136.4537 486.3629,-126.0092 481.351,-116.513"/>
<polygon fill="#000000" stroke="#000000" points="484.3258,-114.6509 476.5628,-107.4407 478.1351,-117.9182 484.3258,-114.6509"/>
</g>
<!-- hj -->
<g id="node47" class="node">
<title>hj</title>
<ellipse fill="none" stroke="#000000" cx="581.358" cy="-306" rx="27" ry="18"/>
<text text-anchor="middle" x="581.358" y="-301.8" font-family="Times,serif" font-size="14.00" fill="#000000">hj</text>
</g>
<!-- hj&#45;&gt;rr -->
<g id="edge53" class="edge">
<title>hj-&gt;rr</title>
<path fill="none" stroke="#000000" d="M580.0979,-324.1451C577.4834,-361.7945 571.4524,-448.6409 568.3226,-493.7103"/>
<polygon fill="#000000" stroke="#000000" points="564.8124,-493.737 567.6111,-503.9555 571.7956,-494.222 564.8124,-493.737"/>
</g>
<!-- hj&#45;&gt;cf -->
<g id="edge54" class="edge">
<title>hj-&gt;cf</title>
<path fill="none" stroke="#000000" d="M572.3526,-288.937C567.8753,-280.4537 562.3629,-270.0092 557.351,-260.513"/>
<polygon fill="#000000" stroke="#000000" points="560.3258,-258.6509 552.5628,-251.4407 554.1351,-261.9182 560.3258,-258.6509"/>
</g>
<!-- mt -->
<g id="node48" class="node">
<title>mt</title>
<ellipse fill="none" stroke="#000000" cx="457.358" cy="-18" rx="27" ry="18"/>
<text text-anchor="middle" x="457.358" y="-13.8" font-family="Times,serif" font-size="14.00" fill="#000000">mt</text>
</g>
<!-- mt&#45;&gt;rr -->
<g id="edge55" class="edge">
<title>mt-&gt;rr</title>
<path fill="none" stroke="#000000" d="M447.8332,-35.0621C442.3572,-45.4711 435.7206,-59.1962 431.358,-72 418.1729,-110.697 412.358,-121.1184 412.358,-162 412.358,-378 412.358,-378 412.358,-378 412.358,-423.7584 429.5492,-436.1031 462.358,-468 482.3074,-487.3949 510.6231,-501.4787 532.6726,-510.3908"/>
<polygon fill="#000000" stroke="#000000" points="531.4134,-513.6564 542.0024,-514.008 533.9438,-507.1298 531.4134,-513.6564"/>
</g>
<!-- pd&#45;&gt;rr -->
<g id="edge73" class="edge">
<title>pd-&gt;rr</title>
<path fill="none" stroke="#000000" d="M463.8356,-108.1045C458.8562,-135.3176 450.358,-188.4358 450.358,-234 450.358,-378 450.358,-378 450.358,-378 450.358,-433.6378 503.5245,-479.9415 537.8698,-504.049"/>
<polygon fill="#000000" stroke="#000000" points="535.9174,-506.9539 546.1524,-509.692 539.8588,-501.169 535.9174,-506.9539"/>
</g>
<!-- pd&#45;&gt;mt -->
<g id="edge74" class="edge">
<title>pd-&gt;mt</title>
<path fill="none" stroke="#000000" d="M464.8346,-71.8314C463.7651,-64.131 462.4933,-54.9743 461.3048,-46.4166"/>
<polygon fill="#000000" stroke="#000000" points="464.7579,-45.8367 459.9154,-36.4133 457.8245,-46.7997 464.7579,-45.8367"/>
</g>
<!-- xv&#45;&gt;dj -->
<g id="edge61" class="edge">
<title>xv-&gt;dj</title>
<path fill="none" stroke="#000000" d="M1025.8356,-396.1045C1020.8562,-423.3176 1012.358,-476.4358 1012.358,-522 1012.358,-666 1012.358,-666 1012.358,-666 1012.358,-706.4718 1019.826,-752.7963 1025.398,-781.7275"/>
<polygon fill="#000000" stroke="#000000" points="1022.0404,-782.7889 1027.4212,-791.9156 1028.9063,-781.4254 1022.0404,-782.7889"/>
</g>
<!-- xv&#45;&gt;dx -->
<g id="edge62" class="edge">
<title>xv-&gt;dx</title>
<path fill="none" stroke="#000000" d="M1020.3526,-360.937C1015.8753,-352.4537 1010.3629,-342.0092 1005.351,-332.513"/>
<polygon fill="#000000" stroke="#000000" points="1008.3258,-330.6509 1000.5628,-323.4407 1002.1351,-333.9182 1008.3258,-330.6509"/>
</g>
<!-- rh&#45;&gt;nl -->
<g id="edge63" class="edge">
<title>rh-&gt;nl</title>
<path fill="none" stroke="#000000" d="M1662.0878,-683.9919C1655.8162,-703.2507 1643.9327,-733.999 1626.358,-756 1614.7518,-770.5293 1598.4126,-783.3092 1584.334,-792.7842"/>
<polygon fill="#000000" stroke="#000000" points="1582.4058,-789.863 1575.9227,-798.2428 1586.2165,-795.735 1582.4058,-789.863"/>
</g>
<!-- rh&#45;&gt;gx -->
<g id="edge64" class="edge">
<title>rh-&gt;gx</title>
<path fill="none" stroke="#000000" d="M1658.3526,-648.937C1653.8753,-640.4537 1648.3629,-630.0092 1643.351,-620.513"/>
<polygon fill="#000000" stroke="#000000" points="1646.3258,-618.6509 1638.5628,-611.4407 1640.1351,-621.9182 1646.3258,-618.6509"/>
</g>
<!-- vs&#45;&gt;pb -->
<g id="edge77" class="edge">
<title>vs-&gt;pb</title>
<path fill="none" stroke="#000000" d="M294.3327,-31.7954C322.6245,-55.2234 374.358,-105.7531 374.358,-162 374.358,-522 374.358,-522 374.358,-522 374.358,-581.8613 311.5673,-627.4448 272.2732,-650.11"/>
<polygon fill="#000000" stroke="#000000" points="270.3412,-647.1802 263.3203,-655.1147 273.7569,-653.2903 270.3412,-647.1802"/>
</g>
<!-- zp -->
<g id="node53" class="node">
<title>zp</title>
<ellipse fill="none" stroke="#000000" cx="934.358" cy="-90" rx="27" ry="18"/>
<text text-anchor="middle" x="934.358" y="-85.8" font-family="Times,serif" font-size="14.00" fill="#000000">zp</text>
</g>
<!-- zp&#45;&gt;mm -->
<g id="edge80" class="edge">
<title>zp-&gt;mm</title>
<path fill="none" stroke="#000000" d="M927.6839,-72.2022C924.6104,-64.0064 920.8964,-54.1024 917.4885,-45.0145"/>
<polygon fill="#000000" stroke="#000000" points="920.7439,-43.7274 913.9554,-35.593 914.1896,-46.1853 920.7439,-43.7274"/>
</g>
<!-- zp&#45;&gt;dj -->
<g id="edge81" class="edge">
<title>zp-&gt;dj</title>
<path fill="none" stroke="#000000" d="M959.8461,-96.3027C1032.6543,-115.0446 1236.358,-172.9373 1236.358,-234 1236.358,-666 1236.358,-666 1236.358,-666 1236.358,-747.6493 1126.1192,-786.9854 1067.3211,-802.1591"/>
<polygon fill="#000000" stroke="#000000" points="1066.1872,-798.8341 1057.3214,-804.6349 1067.8695,-805.629 1066.1872,-798.8341"/>
</g>
<!-- pf -->
<g id="node54" class="node">
<title>pf</title>
<ellipse fill="none" stroke="#000000" cx="1599.358" cy="-90" rx="27" ry="18"/>
<text text-anchor="middle" x="1599.358" y="-85.8" font-family="Times,serif" font-size="14.00" fill="#000000">pf</text>
</g>
<!-- pf&#45;&gt;nl -->
<g id="edge84" class="edge">
<title>pf-&gt;nl</title>
<path fill="none" stroke="#000000" d="M1624.9664,-95.719C1678.7131,-109.3962 1798.358,-149.3494 1798.358,-234 1798.358,-666 1798.358,-666 1798.358,-666 1798.358,-706.8816 1807.8508,-726.6833 1779.358,-756 1753.7018,-782.3981 1649.1601,-798.7498 1592.4191,-805.8563"/>
<polygon fill="#000000" stroke="#000000" points="1591.9135,-802.392 1582.4103,-807.076 1592.7603,-809.3405 1591.9135,-802.392"/>
</g>
<!-- pf&#45;&gt;pr -->
<g id="edge85" class="edge">
<title>pf-&gt;pr</title>
<path fill="none" stroke="#000000" d="M1577.225,-79.3762C1551.7453,-67.1459 1509.7025,-46.9654 1480.8268,-33.105"/>
<polygon fill="#000000" stroke="#000000" points="1482.1117,-29.8395 1471.5818,-28.6674 1479.0825,-36.1501 1482.1117,-29.8395"/>
</g>
<!-- qz&#45;&gt;nl -->
<g id="edge96" class="edge">
<title>qz-&gt;nl</title>
<path fill="none" stroke="#000000" d="M1482.0901,-249.4916C1460.5865,-274.5178 1422.358,-326.2816 1422.358,-378 1422.358,-666 1422.358,-666 1422.358,-666 1422.358,-725.8613 1485.1488,-771.4448 1524.4428,-794.11"/>
<polygon fill="#000000" stroke="#000000" points="1522.9592,-797.2903 1533.3958,-799.1147 1526.3748,-791.1802 1522.9592,-797.2903"/>
</g>
<!-- rl -->
<g id="node57" class="node">
<title>rl</title>
<ellipse fill="none" stroke="#000000" cx="1599.358" cy="-162" rx="27" ry="18"/>
<text text-anchor="middle" x="1599.358" y="-157.8" font-family="Times,serif" font-size="14.00" fill="#000000">rl</text>
</g>
<!-- qz&#45;&gt;rl -->
<g id="edge97" class="edge">
<title>qz-&gt;rl</title>
<path fill="none" stroke="#000000" d="M1515.2498,-220.7941C1531.2209,-209.6298 1554.2996,-193.4971 1572.2434,-180.9539"/>
<polygon fill="#000000" stroke="#000000" points="1574.3952,-183.7201 1580.586,-175.1222 1570.3847,-177.9829 1574.3952,-183.7201"/>
</g>
<!-- xz&#45;&gt;dj -->
<g id="edge87" class="edge">
<title>xz-&gt;dj</title>
<path fill="none" stroke="#000000" d="M927.0729,-179.384C916.5536,-206.1035 898.358,-259.0997 898.358,-306 898.358,-666 898.358,-666 898.358,-666 898.358,-725.8613 961.1488,-771.4448 1000.4428,-794.11"/>
<polygon fill="#000000" stroke="#000000" points="998.9592,-797.2903 1009.3958,-799.1147 1002.3748,-791.1802 998.9592,-797.2903"/>
</g>
<!-- xz&#45;&gt;zp -->
<g id="edge88" class="edge">
<title>xz-&gt;zp</title>
<path fill="none" stroke="#000000" d="M934.358,-143.8314C934.358,-136.131 934.358,-126.9743 934.358,-118.4166"/>
<polygon fill="#000000" stroke="#000000" points="937.8581,-118.4132 934.358,-108.4133 930.8581,-118.4133 937.8581,-118.4132"/>
</g>
<!-- rl&#45;&gt;nl -->
<g id="edge90" class="edge">
<title>rl-&gt;nl</title>
<path fill="none" stroke="#000000" d="M1620.2233,-173.6584C1655.3157,-194.9848 1722.358,-243.8595 1722.358,-306 1722.358,-594 1722.358,-594 1722.358,-594 1722.358,-672.7909 1709.2514,-703.6591 1650.358,-756 1631.5912,-772.6789 1606.8387,-786.5447 1587.305,-796.0484"/>
<polygon fill="#000000" stroke="#000000" points="1585.7312,-792.9209 1578.184,-800.3567 1588.7209,-799.2504 1585.7312,-792.9209"/>
</g>
<!-- rl&#45;&gt;pf -->
<g id="edge91" class="edge">
<title>rl-&gt;pf</title>
<path fill="none" stroke="#000000" d="M1599.358,-143.8314C1599.358,-136.131 1599.358,-126.9743 1599.358,-118.4166"/>
<polygon fill="#000000" stroke="#000000" points="1602.8581,-118.4132 1599.358,-108.4133 1595.8581,-118.4133 1602.8581,-118.4132"/>
</g>
<!-- xn&#45;&gt;pb -->
<g id="edge108" class="edge">
<title>xn-&gt;pb</title>
<path fill="none" stroke="#000000" d="M179.5197,-723.0816C190.6795,-712.7802 205.6914,-698.923 218.1295,-687.4417"/>
<polygon fill="#000000" stroke="#000000" points="220.5099,-690.0076 225.484,-680.653 215.7619,-684.864 220.5099,-690.0076"/>
</g>
<!-- xn&#45;&gt;gf -->
<g id="edge109" class="edge">
<title>xn-&gt;gf</title>
<path fill="none" stroke="#000000" d="M151.4045,-721.7613C132.8755,-696.5897 97.1003,-647.9895 75.4114,-618.5254"/>
<polygon fill="#000000" stroke="#000000" points="78.1774,-616.3788 69.4305,-610.4003 72.54,-620.5286 78.1774,-616.3788"/>
</g>
<!-- kb&#45;&gt;rr -->
<g id="edge101" class="edge">
<title>kb-&gt;rr</title>
<path fill="none" stroke="#000000" d="M612.806,-395.8017C603.6775,-420.6036 587.0533,-465.7713 576.3671,-494.8056"/>
<polygon fill="#000000" stroke="#000000" points="573.0264,-493.7493 572.8569,-504.3428 579.5956,-496.1672 573.0264,-493.7493"/>
</g>
<!-- kb&#45;&gt;hj -->
<g id="edge102" class="edge">
<title>kb-&gt;hj</title>
<path fill="none" stroke="#000000" d="M610.3526,-360.937C605.8753,-352.4537 600.3629,-342.0092 595.351,-332.513"/>
<polygon fill="#000000" stroke="#000000" points="598.3258,-330.6509 590.5628,-323.4407 592.1351,-333.9182 598.3258,-330.6509"/>
</g>
</g>
</svg>